<svg xmlns="http://www.w3.org/2000/svg" width="132.88" height="35" viewBox="0 0 132.88 35"><rect class="svg__rect" x="0" y="0" width="88.08" height="35" fill="#3BC4F3"/><rect class="svg__rect" x="86.08" y="0" width="46.8" height="35" fill="#8FC965"/><path class="svg__text" d="M15.70 22L14.22 22L14.22 13.47L17.48 13.47Q18.91 13.47 19.75 14.21Q20.59 14.96 20.59 16.18L20.59 16.18Q20.59 17.44 19.77 18.13Q18.95 18.83 17.46 18.83L17.46 18.83L15.70 18.83L15.70 22ZM15.70 14.66L15.70 17.64L17.48 17.64Q18.27 17.64 18.69 17.27Q19.10 16.90 19.10 16.19L19.10 16.19Q19.10 15.50 18.68 15.09Q18.26 14.68 17.52 14.66L17.52 14.66L15.70 14.66ZM26.91 18.86L24.05 13.47L25.70 13.47L27.66 17.51L29.62 13.47L31.26 13.47L28.40 18.86L28.40 22L26.91 22L26.91 18.86ZM36.86 14.66L34.22 14.66L34.22 13.47L40.99 13.47L40.99 14.66L38.33 14.66L38.33 22L36.86 22L36.86 14.66ZM46.23 22L44.74 22L44.74 13.47L46.23 13.47L46.23 17.02L50.04 17.02L50.04 13.47L51.52 13.47L51.52 22L50.04 22L50.04 18.21L46.23 18.21L46.23 22ZM55.99 18.00L55.99 18.00L55.99 17.52Q55.99 16.28 56.43 15.32Q56.87 14.37 57.68 13.86Q58.48 13.35 59.53 13.35Q60.57 13.35 61.38 13.85Q62.18 14.35 62.62 15.29Q63.06 16.23 63.07 17.48L63.07 17.48L63.07 17.96Q63.07 19.21 62.63 20.16Q62.20 21.10 61.39 21.61Q60.59 22.12 59.54 22.12L59.54 22.12Q58.50 22.12 57.69 21.61Q56.88 21.10 56.44 20.17Q55.99 19.23 55.99 18.00ZM57.47 17.46L57.47 17.96Q57.47 19.36 58.02 20.13Q58.57 20.90 59.54 20.90L59.54 20.90Q60.52 20.90 61.05 20.15Q61.58 19.40 61.58 17.96L61.58 17.96L61.58 17.51Q61.58 16.09 61.05 15.34Q60.51 14.58 59.53 14.58L59.53 14.58Q58.57 14.58 58.02 15.33Q57.48 16.09 57.47 17.46L57.47 17.46ZM69.01 22L67.53 22L67.53 13.47L69.01 13.47L72.83 19.54L72.83 13.47L74.30 13.47L74.30 22L72.82 22L69.01 15.95L69.01 22Z" fill="#FFFFFF"/><path class="svg__text" d="M99.84 17.80L99.84 17.80Q99.84 16.55 100.44 15.55Q101.05 14.56 102.11 14.00Q103.17 13.43 104.50 13.43L104.50 13.43Q105.83 13.43 106.90 14.00Q107.96 14.56 108.57 15.55Q109.17 16.55 109.17 17.80L109.17 17.80Q109.17 19.22 108.40 20.30Q107.63 21.39 106.32 21.85L106.32 21.85Q106.56 22.12 106.79 22.23Q107.02 22.33 107.30 22.33L107.30 22.33Q108.01 22.33 108.58 21.75L108.58 21.75L109.61 22.97Q109.19 23.49 108.58 23.76Q107.97 24.03 107.25 24.03L107.25 24.03Q106.55 24.03 105.99 23.85Q105.43 23.67 104.86 23.25Q104.29 22.84 103.58 22.09L103.58 22.09Q102.49 21.91 101.64 21.31Q100.78 20.72 100.31 19.81Q99.84 18.89 99.84 17.80ZM102.24 17.80L102.24 17.80Q102.24 18.51 102.54 19.05Q102.84 19.60 103.36 19.90Q103.87 20.20 104.50 20.20L104.50 20.20Q105.14 20.20 105.66 19.90Q106.17 19.60 106.47 19.05Q106.77 18.51 106.77 17.80L106.77 17.80Q106.77 17.09 106.47 16.54Q106.17 16 105.66 15.70Q105.14 15.40 104.50 15.40L104.50 15.40Q103.87 15.40 103.35 15.70Q102.84 16 102.54 16.54Q102.24 17.09 102.24 17.80ZM115.70 15.48L113.11 15.48L113.11 13.60L120.64 13.60L120.64 15.48L118.07 15.48L118.07 22L115.70 22L115.70 15.48Z" fill="#FFFFFF" x="99.08"/></svg>